<?xml version="1.0" encoding="utf-8"?>
<!-- Generator: Adobe Illustrator 22.1.0, SVG Export Plug-In . SVG Version: 6.00 Build 0)  -->
<svg version="1.1" id="content" xmlns="http://www.w3.org/2000/svg" xmlns:xlink="http://www.w3.org/1999/xlink" x="0px" y="0px"
	 viewBox="0 0 1173 804" style="enable-background:new 0 0 1173 804;" xml:space="preserve">
<style type="text/css">
	.st0{fill:#01305C;}
	.st1{fill:#FFFFFF;}
	.st2{fill:#EF6923;}
	.st3{fill:#F9F9F9;}
	.st4{fill:url(#SVGID_1_);}
	.st5{fill:url(#SVGID_2_);}
</style>
<g id="_x31_1">
	<g id="XMLID_2396_">
		<g id="XMLID_2397_">
			<path id="XMLID_4142_" class="st0" d="M752,255.8l-150-74.7c-5.4-2.8-8.5-7.3-8.5-12.1c0-4.2,2.4-8.2,6.7-11l11.4-6.9l4.8,2.6
				l-13.8,8.3c-2.9,1.9-4.5,4.4-4.5,7c0,3.1,2.2,5.9,5.9,7.9l152.5,75.9L752,255.8z"/>
		</g>
	</g>
	<g id="XMLID_2393_">
		<g id="XMLID_2394_">
			<path id="XMLID_2395_" class="st0" d="M781.8,267.5c-4.4,0-8.5-1-12-2.8l-17.8-8.9l4.6-3l15.3,7.7c2.9,1.5,6.3,2.3,9.9,2.3
				c3.9,0,7.7-0.9,10.6-2.7l167-100l5.2,2.1L794.8,264.2C791.1,266.4,786.5,267.5,781.8,267.5z"/>
		</g>
	</g>
	<g id="XMLID_2387_">
		<g id="XMLID_2388_">
			<path id="XMLID_2389_" class="st0" d="M616.3,153.7l-4.8-2.6l13.7-7.9c3.3-1.9,5.2-4.7,5.2-7.5c0-3.1-2.2-6-6-7.9l-14.1-7.1
				l4.7-2.9l11.5,5.8c5.4,2.8,8.5,7.3,8.5,12.1c0,4.5-2.8,8.8-7.5,11.6L616.3,153.7z"/>
		</g>
	</g>
	<g id="XMLID_2384_">
		<g id="XMLID_2385_">
			<path id="XMLID_2386_" class="st0" d="M437.1,58l-5.2-2.1l16.7-10.4c3.7-2.4,8.6-3.8,13.7-3.8c4.3,0,8.5,1,12,2.8L615,117.8
				l-4.7,2.9l-138.1-72c-2.9-1.5-6.3-2.3-9.9-2.3c-4.2,0-8.3,1.1-11.3,3.1L437.1,58z"/>
		</g>
	</g>
	<g id="XMLID_2_">
		<g id="XMLID_3_">
			<path id="XMLID_4_" class="st0" d="M964.6,162.3l-5.2-2.1l16.7-10.4c3.7-2.4,8.6-3.8,13.7-3.8c4.3,0,8.5,1,12,2.8l95.4,49.4
				l-4.7,2.9l-92.8-48c-2.9-1.5-6.3-2.3-9.9-2.3c-4.2,0-8.3,1.1-11.3,3.1L964.6,162.3z"/>
		</g>
	</g>
	<g id="XMLID_5_">
		<g id="XMLID_6_">
			<path id="XMLID_7_" class="st0" d="M917.7,340.7l-4.8-2.6l194.5-114.5c3.3-1.9,5.2-4.7,5.2-7.5c0-3.1-2.2-6-6-7.9l-14.1-7.1
				l4.7-2.9l11.5,5.8c5.4,2.8,8.5,7.3,8.5,12.1c0,4.5-2.8,8.8-7.5,11.6L917.7,340.7z"/>
		</g>
	</g>
	<g id="XMLID_4491_">
		<g id="XMLID_4492_">
			<path id="XMLID_4493_" class="st0" d="M1059,443.6l-146.3-81c-5.4-2.8-8.5-7.3-8.5-12.1c0-4.2,2.4-8.2,6.7-11l11.4-6.9l4.8,2.6
				l-13.8,8.3c-2.9,1.9-4.5,4.4-4.5,7c0,3.1,2.2,5.9,5.9,7.9l148.8,82.3L1059,443.6z"/>
		</g>
	</g>
	<g id="XMLID_13256_">
		<g id="XMLID_13257_">
			<g id="XMLID_13266_">
				<path id="XMLID_13271_" class="st0" d="M1086,422.2L1086,422.2l-3.1-12.8h-7.3c-7.9-5.2-19.5-8.5-32.4-8.5s-24.5,3.3-32.4,8.5
					h-7l-3.3,12.7h0c-0.4,1.3-0.6,2.7-0.6,4c0,13.9,19.4,25.3,43.3,25.3c23.9,0,43.3-11.3,43.3-25.3
					C1086.6,424.8,1086.3,423.5,1086,422.2z"/>
				<polygon id="XMLID_13270_" class="st1" points="999.9,426.1 1003.1,435.6 1016,445.7 1029.8,449.9 1031.7,433.4 1021.2,431 
					1007,421.9 1003.5,413.8 1003.8,409.4 				"/>
				<path id="XMLID_13267_" class="st0" d="M1043.2,452.8c-24.7,0-44.7-12-44.7-26.7c0-0.8,0.1-1.7,0.2-2.6h-0.1l0.4-1.8l3.6-13.8
					h7.7c8.4-5.4,20.4-8.5,32.8-8.5c12.4,0,24.4,3.1,32.8,8.5h8l3.3,14h0c0.4,1.6,0.6,2.9,0.6,4.2
					C1088,440.8,1067.9,452.8,1043.2,452.8z M1002.3,420.6L1002.3,420.6l-0.4,1.8c-0.4,1.3-0.6,2.5-0.6,3.6
					c0,13.1,18.8,23.8,41.9,23.8c23.1,0,41.9-10.7,41.9-23.8c0-1.1-0.2-2.2-0.5-3.5l0,0l-2.8-11.7h-6.6l-0.4-0.2
					c-8-5.3-19.5-8.3-31.6-8.3c-12.1,0-23.6,3-31.6,8.3l-0.4,0.2h-6.3L1002.3,420.6z"/>
			</g>
			<g id="XMLID_13263_">
				<path id="XMLID_13265_" class="st1" d="M1083.3,412.3c0,12.8-17.9,23.3-39.9,23.3c-22,0-39.9-10.4-39.9-23.3
					c0-12.8,17.9-23.3,39.9-23.3C1065.4,389.1,1083.3,399.5,1083.3,412.3z"/>
			</g>
			<g id="XMLID_13258_">
				<path id="XMLID_13260_" class="st0" d="M1043.4,387.6c-22.8,0-41.3,11.1-41.3,24.7c0,13.6,18.5,24.7,41.3,24.7
					c22.8,0,41.3-11.1,41.3-24.7C1084.7,398.7,1066.2,387.6,1043.4,387.6z M1043.4,434.1c-21.2,0-38.4-9.8-38.4-21.8
					c0-12,17.2-21.8,38.4-21.8c21.2,0,38.4,9.8,38.4,21.8C1081.8,424.4,1064.6,434.1,1043.4,434.1z"/>
				<path id="XMLID_13259_" class="st0" d="M1043.2,400.1c-11.2,0-20.3,4.9-20.3,10.9s9.1,10.9,20.3,10.9s20.3-4.9,20.3-10.9
					S1054.4,400.1,1043.2,400.1z"/>
			</g>
		</g>
	</g>
</g>
<g id="_x31_0">
	<path id="XMLID_1950_" class="st0" d="M408.7,246.7l-11.2-5.6l0,0l-54.8-27.2l-0.1,0.1l-8.7-4.3c-3.4-1.8-7.4-2.7-11.7-2.7
		c-5,0-9.8,1.3-13.4,3.7l-14,8.5l0,0l-54.7,33.3l4.7,2.4l52.7-32.1l0.1,0l13.6-8.3c2.9-1.9,6.8-3,11-3c3.5,0,6.8,0.8,9.6,2.2
		l14.5,7.2l0.2-0.1l48,23.8l0,0l12.1,6.1c3.7,1.9,5.8,4.7,5.8,7.7c0,2.7-1.9,5.4-5.1,7.3l-7.6,4.3l0,0l-0.2,0.1l-2.4,1.3l0.1,0
		l-52.2,31.8l0.1,0.1L306.6,327l-0.2-0.1l-54.7,33.3l0.1,0.1l-30.7,18.7l0,0l-37.5,22.8l-0.1-0.1L151,421.7l4.7,2.4l15.3-9.6
		l0.1,0.1l37.1-22.6l0,0l54.7-33.3l-0.1-0.1l45.9-27.9l0.2,0.1l54.7-33.3l-0.1-0.1l38.7-23.6l0,0l7.4-4.2c4.7-2.7,7.3-6.9,7.3-11.3
		C417,253.8,413.9,249.4,408.7,246.7z"/>
	<g id="XMLID_12_">
		<path id="XMLID_100_" class="st1" d="M382.5,505.6c7.4-7.3,8.4-21.3,8.6-31.1c0.3-16.4-32.6-43.8-32.6-43.8s6.8-6.2,3.1-22.5
			c-3.7-16.2-14.8-33.6-27.4-45.5c-12.6-11.9-26.8-8.1-26.8-8.1s12.3-29.9,22.2-51.1c9.9-21.2,2.5-31.2-7.4-34.9
			c-9.9-3.7-22.2,0-33.2,19.5C277.9,307.7,196.6,512,196.6,512S66.1,461.8,80.8,436.6c14.8-25.2,14.8-47,14.8-65.8
			s-13.5-28.6-18.5-33.5c-4.9-5-14.1-4.9-20.9,18.5c-8,27.5-40.6,51.2-41.9,72c-1.2,20.8,12.3,113.8,13.5,147.4
			c1.2,33.5-2,60.9-3.7,88.6c-1.6,27.4-6.8,57.6-12.3,87.2c-2.3,12.1-4,26-8.1,50.1h210.4c1.5-13.4,4.4-24.1,18.9-46.7
			c16.4-25.5,30.1-35.5,50.7-57.4c34.8-37.1,49.1-54.8,68.1-80.6c17.1-23.2,32.6-44.9,38.8-70.8c2.6-11.2-15.4-32.6-15.4-32.6
			S375.1,512.9,382.5,505.6z"/>
		<path id="XMLID_219_" class="st0" d="M383.6,506.7c7.7-7.6,8.9-22,9.1-32.1c0.3-15.4-26.1-39-32-44.1c1.9-2.7,5.4-9.6,2.4-22.6
			c-3.6-15.7-14.2-33.5-27.8-46.3c-9.8-9.3-20.5-9.5-25.4-8.9c3.2-7.6,13-31.1,21.1-48.5c4.9-10.6,6.1-19.4,3.4-26.2
			c-2-4.9-6-8.6-11.6-10.7c-7.2-2.8-21.4-3.8-35,20.2c-10.7,18.8-84.2,203.4-91.9,222.7c-12.3-4.8-105.8-42.3-114.1-66.3
			c-0.8-2.4-0.7-4.6,0.4-6.5c15-25.6,15-47.4,15-66.6c0-17-10.9-27.1-16.7-32.5c-0.8-0.8-1.6-1.5-2.2-2.1c-2.6-2.6-5.7-3.6-8.8-2.8
			c-5.8,1.5-10.7,8.9-14.5,21.9c-3.8,13.1-13.3,25.3-22.5,37.1c-9.7,12.4-18.8,24.1-19.4,35.2c-0.7,11.4,2.9,43.1,6.7,76.7
			c3.1,27.3,6.3,55.5,6.8,70.8c0.9,25.1-0.7,46.8-2.3,67.8c-0.5,6.8-1,13.8-1.4,20.7c-1.7,27.8-6.9,58.3-12.3,87.1
			c-1.2,6.4-2,11.2-3,17.8c-1,6.1-3,19.3-5.2,32.5h3c2.1-12.8,4.1-26.1,5.1-32c1.1-6.6,1.8-11.4,3-17.8
			c5.4-28.9,10.7-59.5,12.3-87.4c0.4-6.9,0.9-13.9,1.4-20.6c1.6-21.1,3.2-42.9,2.3-68.1c-0.6-15.4-3.8-43.7-6.8-71
			c-3.6-32-7.4-65.1-6.7-76.2c0.6-10.2,9.4-21.5,18.8-33.6c9.4-12,19-24.4,23-38.1c4.6-15.7,9.8-19.2,12.4-19.9c2.8-0.7,5,0.9,6.1,2
			c0.6,0.6,1.4,1.4,2.3,2.2c5.9,5.5,15.8,14.6,15.8,30.3c0,18.8,0,40.2-14.6,65.1c-1.6,2.7-1.8,5.7-0.7,9
			c9.3,26.9,112.8,66.9,117.2,68.6l1.3,0.5l0.5-1.3c0.8-2,81.4-204.5,92.3-223.7c9.3-16.3,20.5-23.1,31.5-18.9
			c3.4,1.3,7.8,3.9,9.9,9.1c2.4,6,1.3,14-3.3,23.8c-9.8,21-22.1,50.8-22.2,51.1l-1.1,2.8l2.9-0.8c0.1,0,13.6-3.5,25.5,7.7
			c13.2,12.4,23.5,29.6,26.9,44.8c3.4,15-2.6,21-2.6,21l-1.2,1.1l1.3,1.1c0.3,0.3,32.4,27.1,32.1,42.7c-0.2,9.6-1.2,23.2-8.2,30.1
			l-8.4,8.3l0.9,1c4.9,5.8,17.1,22.7,15,31.3c-6.2,26.5-22.6,48.8-38.5,70.3c-18.7,25.4-33,43.1-68,80.5
			c-5.9,6.3-11.1,11.5-16.2,16.5c-12.3,12.2-22.9,22.7-34.6,41.1c-14.6,22.8-17.6,34.3-19.1,47.5h2.9c1.5-12.7,4.5-23.9,18.6-45.9
			c11.6-18.1,22.1-28.5,34.2-40.6c5.1-5.1,10.4-10.3,16.3-16.6c35.1-37.5,49.4-55.2,68.2-80.7c16-21.8,32.6-44.3,39-71.4
			c2.5-10.5-11.1-28.3-14.8-32.9L383.6,506.7z"/>
	</g>
	<path id="XMLID_105_" class="st1" d="M267.3,594.7H110.6c-9.2,0-16.6-7.4-16.6-16.6V229.6c0-9.2,7.4-16.6,16.6-16.6h156.7
		c9.2,0,16.6,7.4,16.6,16.6v348.5C283.9,587.3,276.5,594.7,267.3,594.7z"/>
	<g id="XMLID_1890_">
		<polygon id="XMLID_1902_" class="st0" points="284.4,225.5 240.1,252.5 244.9,254.9 284.4,230.8 		"/>
		<polygon id="XMLID_1903_" class="st0" points="284.4,340.3 251.7,360.2 251.8,360.2 221.1,378.9 188.5,398.7 188.5,404 208.3,392 
			208.3,392 263,358.8 262.8,358.7 284.4,345.6 		"/>
	</g>
	<path id="XMLID_8646_" class="st0" d="M437.1,58l-5.2-2.1l-72.8,44.7l0.1,0.1l-45.9,27.9l-0.2-0.1l-54.7,33.3l0.1,0.1l-48.3,29.4
		l-19.9,12.1l-0.1-0.1L138.1,235l0,0l-11.1,6.7c-4.1,2.7-6.5,6.6-6.5,10.7c0,4.7,3.1,9.1,8.3,11.8l4.8,2.3l0,0l24,11.6l14.2,7.1
		c3.4,1.8,7.4,2.7,11.7,2.7c4.6,0,9.1-1.1,12.6-3.2l16.8-10.4l51.8-31.5l-0.2-0.1l-7.9-0.5l0.2,0.1l-48.4,29.5l0,0l-1.6,1l-1.5,0.9
		l0,0l-11.4,7.1c-2.8,1.7-6.5,2.6-10.3,2.6c-3.5,0-6.8-0.8-9.6-2.2l-7.9-4l0,0l-1.5-0.7l-5.5-2.8l-0.1,0.1l-16.5-8l0.1-0.1
		l-11.7-5.6c-3.7-1.9-5.8-4.7-5.8-7.7c0-2.6,1.6-5,4.4-6.9l13.4-8.1l0,0l35-21.3l0.1,0.1l37.1-22.6h0l54.7-33.3l-0.1-0.1l45.9-27.9
		l0.2,0.1l54.7-33.3l-0.1-0.1L437.1,58z"/>
	<g id="XMLID_81_">
		<path id="XMLID_1877_" class="st0" d="M282,198.1H96.5c-8.3,0-15,6.8-15,15.2v392.3c0,8.4,6.7,15.2,15,15.2H282
			c8.3,0,15-6.8,15-15.2V213.3C297.1,204.9,290.3,198.1,282,198.1z M284.3,574c0,6-4.8,10.8-10.7,10.8H105
			c-5.9,0-10.7-4.8-10.7-10.8V228.4c0-6,4.8-10.8,10.7-10.8h168.6c5.9,0,10.7,4.8,10.7,10.8V574z"/>
		<path id="XMLID_1889_" class="st1" d="M171.3,209.7L171.3,209.7c-1,0-1.8-0.8-1.8-1.8l0,0c0-1,0.8-1.8,1.8-1.8l0,0
			c1,0,1.8,0.8,1.8,1.8l0,0C173.1,208.9,172.3,209.7,171.3,209.7z"/>
	</g>
	<g id="XMLID_15_">
		<path id="XMLID_246_" class="st1" d="M359.2,431.3c0,0-1.1-1.7-3.4-2.5l-3.5-1.5c0,0-8.9-4.4-21.4-2.3
			c-12.5,2.1-26.9,11.6-35.1,14.5c-8.2,2.9-15.6,5.4-15.6,5.4s-11.3,15.8,3,28.2c14.3,12.5,22.5,10.4,38.1,7.5s18.1-4.7,23.4,2.2
			c5.3,6.9,0,10.2,0,10.2s21.3,6.2,31.2,20.4c0,0,0,0,7.4-7.3c7.4-7.3,8.4-21.3,8.6-31.1C392.1,458.7,359.2,431.3,359.2,431.3z"/>
		<path id="XMLID_214_" class="st0" d="M360.3,430.3c-0.4-0.6-1.7-2.1-4-2.8l-3.4-1.5c-0.4-0.2-9.4-4.5-22.3-2.4
			c-8.3,1.4-17.5,6-24.9,9.8c-0.9,0.5-1.8,0.9-2.7,1.3l-13.3,5.5c-5.6,2-9.9,3.4-9.9,3.4l-0.4,0.1l-0.3,0.4
			c-0.1,0.2-11.9,17,3.2,30.2c14.3,12.5,23.1,10.8,37.7,8.1l1.6-0.3c2.2-0.4,4.1-0.8,5.9-1.1c10.5-2.1,12.1-2.4,16.1,2.8
			c1.6,2.1,2.3,3.9,2,5.5c-0.3,1.7-1.6,2.6-1.6,2.6l-2.8,1.7l3.2,0.9c0.2,0.1,20.9,6.2,30.4,19.8l1,1.4l8.6-8.5
			c7.7-7.6,8.9-22,9.1-32.1C393.6,458.6,363,432.6,360.3,430.3z M287.4,444.2l3-1.2c2.1,0.6,5.6,2.2,8.4,6.1
			c1.5,2.2,3.1,4.9,4.7,7.9c-1.1,0.4-2,0.7-2.7,0.9c-0.8-1.4-2.6-4.1-6.4-8.3c-0.5-0.6-1-1.1-1.5-1.5c-0.1-0.1-0.2-0.2-0.3-0.3
			c-0.5-0.5-1-0.9-1.4-1.2c-0.1-0.1-0.2-0.2-0.4-0.3c-0.5-0.4-0.9-0.7-1.4-1c-0.1-0.1-0.2-0.2-0.4-0.2c-0.5-0.3-1-0.6-1.5-0.8
			C287.5,444.3,287.5,444.3,287.4,444.2C287.4,444.3,287.4,444.3,287.4,444.2z M301.3,447.5c-2.1-3-4.5-4.8-6.6-5.9
			c0.5-0.2,1.1-0.4,1.6-0.6c2.3-0.8,4.9-2.1,7.9-3.6l2.6-1.1l0.2-0.1c0.1-0.1,2-1.1,4.9-1.1c1.6,0,3.4,0.3,5.5,1.2
			c5.7,2.4,4.7,9.3,3.4,12.5c-0.6,1.5-7.1,4.6-14.4,7.2C304.6,452.8,302.9,449.8,301.3,447.5z M382.2,505.2l-6.2,6.1
			c-8.5-10.9-23.1-16.8-28.7-18.8c0.5-0.7,0.9-1.5,1.1-2.6c0.4-2.4-0.4-5.1-2.6-7.9c-5.1-6.7-8.3-6-19-3.9c-1.7,0.3-3.6,0.7-5.8,1.1
			l-1.6,0.3c-14.7,2.8-22,4.1-35.3-7.4c-12.1-10.5-4.6-23.5-3-25.9c0.5-0.2,1.5-0.5,2.7-0.9c0.3,0.5,0.7,1,1.3,1.2
			c0.3,0.1,0.7,0.3,1.2,0.5c0.4,0.2,0.9,0.5,1.3,0.7c0.1,0.1,0.2,0.1,0.3,0.2c0.4,0.3,0.9,0.6,1.3,0.9c0.1,0.1,0.2,0.2,0.3,0.2
			c0.4,0.3,0.7,0.6,1.1,0.9c0.1,0.1,0.3,0.2,0.4,0.4c0.4,0.4,0.9,0.9,1.3,1.4c5.4,5.9,6.5,8.6,6.5,8.6l0.5,1.3l1.3-0.4
			c0,0,0.1,0,0.2-0.1c5.2-1.7,20.9-7,22.6-11.1c1.7-4.2,2.9-13-4.9-16.4c-1.5-0.6-2.9-1-4.2-1.2c5.6-2.6,11.4-5,16.9-5.9
			c11.9-2,20.4,2.1,20.6,2.2l3.6,1.5c1.8,0.6,2.6,1.8,2.7,1.9l0.3,0.3c0.3,0.3,32.4,27.1,32.1,42.7
			C390.2,484.7,389.1,498.3,382.2,505.2z"/>
	</g>
	<g id="XMLID_14_">
		<path id="XMLID_99_" class="st1" d="M361.7,408.2c-3.7-16.2-14.8-33.6-27.4-45.5c-8.7-8.2-18.2-8.9-23.2-8.6l-3.6,0.5
			c0,0-12.9-1.2-19.1,6.3c-6.2,7.5-7.4,11.2-4.9,21.2c2.5,10,8.6,19.3,18.5,22.4c9.9,3.1,28.3,6.2,31.4,8.1
			c3.1,1.9-3.3,12.5-3.3,12.5s12.6-1.9,28.6,5.5C358.6,430.7,365.4,424.5,361.7,408.2z"/>
		<path id="XMLID_96_" class="st0" d="M363.1,407.9c-3.6-15.7-14.2-33.5-27.8-46.3c-8.9-8.4-18.6-9.3-23.9-9
			c-0.5-0.1-0.9-0.1-0.9-0.1l-0.1,0l-4.1,0.5c-2-0.1-6.1,0-10.2,1.3l-1.3,0.2v0l0,0l0,0.3c-2.7,1-5.4,2.6-7.5,5.1
			c-6.3,7.7-7.9,11.8-5.2,22.5c2.9,11.8,10.2,20.6,19.4,23.5c4.7,1.5,11.3,3,17.1,4.3c6.2,1.4,12.5,2.8,14,3.7c0,0,0.1,0.1,0.1,0.2
			c0.5,1.9-2,7.2-3.9,10.3l-1.6,2.7l3.1-0.5c0.1,0,12.3-1.8,27.7,5.4l0.9,0.4l0.7-0.7C359.9,431.5,367,424.8,363.1,407.9z
			 M310,362.5c2.8,5.2,3.4,8.3,4.2,12.5c0.2,1,0.4,2.1,0.7,3.3c0,0.1,0,0.3,0,0.6c-0.6,0.3-1.3,0.5-1.8,0.7c0-0.2,0-0.4-0.1-0.5
			c0-0.1,0-0.2,0-0.4c0-0.2-0.1-0.4-0.1-0.7c0-0.2,0-0.3-0.1-0.5c0-0.2-0.1-0.5-0.1-0.8c0-0.2-0.1-0.4-0.1-0.6
			c0-0.3-0.1-0.6-0.2-0.9c0-0.2-0.1-0.4-0.1-0.6c-0.1-0.3-0.1-0.7-0.2-1c-0.1-0.2-0.1-0.5-0.2-0.7c-0.1-0.4-0.2-0.8-0.3-1.2
			c-0.1-0.2-0.1-0.5-0.2-0.7c-0.1-0.4-0.3-0.9-0.4-1.4c-0.1-0.3-0.1-0.5-0.2-0.8c-0.2-0.7-0.5-1.5-0.7-2.4c-0.2-0.7-0.5-1.3-0.7-1.9
			c-0.1-0.2-0.2-0.3-0.3-0.5c-0.2-0.4-0.4-0.8-0.6-1.2c-0.1-0.2-0.2-0.3-0.3-0.4c-0.2-0.4-0.5-0.7-0.7-1.1c-0.1-0.2-0.2-0.3-0.4-0.4
			c-0.2-0.3-0.5-0.6-0.7-0.9c-0.1-0.1-0.3-0.3-0.4-0.4c-0.2-0.3-0.5-0.5-0.8-0.8c-0.1-0.1-0.3-0.2-0.4-0.3c-0.3-0.2-0.5-0.5-0.8-0.7
			c-0.1-0.1-0.3-0.2-0.4-0.3c-0.3-0.2-0.6-0.4-0.8-0.6c-0.1-0.1-0.2-0.1-0.4-0.2c-0.3-0.2-0.5-0.3-0.8-0.5
			C304.8,357.6,308.3,359.4,310,362.5z M312.5,361.1c-1-1.9-2.7-3.6-4.9-5l3.6-0.5c0.1,0,0.1,0,0.2,0c3.1,0.3,12.4,2.2,12.4,13.3
			c0,3.9-3.1,6.8-6.1,8.6c-0.2-1.1-0.4-2.1-0.6-3.1C316.2,370.1,315.5,366.7,312.5,361.1z M358.2,428.9c-10.3-4.6-19.1-5.4-24.1-5.4
			c-0.5,0-1,0-1.5,0c1.5-2.9,3.5-7.4,2.9-10.1c-0.2-0.9-0.7-1.6-1.4-2c-1.8-1.1-6.8-2.2-14.8-4c-5.8-1.3-12.3-2.8-16.9-4.2
			c-8.3-2.6-14.8-10.6-17.5-21.4c-2.4-9.6-1.1-12.9,4.6-19.9c1.7-2,3.9-3.3,6.3-4.2c2.5,0.4,9.3,2.3,11.7,9.9c3.1,9.8,2.8,14,2.8,14
			l-0.2,1.8h0l0,0.3l2-0.5c0.5-0.1,2.1-0.4,4.7-1.8c4.3-2,10-6,10-12.5c0-5.8-2.2-9.6-4.9-12c3.7,1.2,7.7,3.3,11.5,6.9
			c13.2,12.4,23.5,29.6,26.9,44.8C363.1,420.7,359.7,426.9,358.2,428.9z"/>
	</g>
	<g id="XMLID_17_">
		<polygon id="XMLID_210_" class="st1" points="122.1,422.5 191.1,462.8 191.1,382.4 122.1,341.9 122.1,341.9 		"/>
		<path id="XMLID_205_" class="st0" d="M261.4,341.3l-70.4-41.1l-70.2,41l-0.2,0.1v0l0,1.6l0,0v80.6l69,40.3l0,0l1.4,0.8l1.4-0.8
			l0,0l68.3-39.9l0.7-0.4v-80.6l0,0L261.4,341.3z M191.1,303.4l32.4,18.9l-66.2,38.7l-32.4-18.9L191.1,303.4z M189.7,460.6
			l-66.2-38.7v-77.4l66.2,38.7V460.6z M219.1,364.4l-28.1,16.4l-32.4-18.9l66.2-38.7l32.4,18.9L219.1,364.4z"/>
		<path id="XMLID_102_" class="st0" d="M163.7,382.5l-12.8-7.5c-1.4-0.8-2.9-0.9-4-0.2c-1.3,0.8-2.1,2.4-2.1,4.5
			c0,3.5,2.1,7.5,4.7,9.1l12.8,7.5c0.8,0.5,1.6,0.7,2.3,0.7c0.6,0,1.2-0.2,1.7-0.5c1.3-0.8,2.1-2.4,2.1-4.5
			C168.4,388.1,166.3,384.1,163.7,382.5z M164.9,393.7c-0.4,0.2-1,0-1.3-0.2l-12.8-7.5c-1.8-1.1-3.4-4.1-3.4-6.6
			c0-1.3,0.4-1.9,0.7-2.1c0.4-0.2,1,0,1.3,0.2l0.9,0.5c0.3,3,2.1,6.2,4.3,7.5l10.9,6.4C165.6,392.9,165.2,393.5,164.9,393.7z"/>
		<path id="XMLID_98_" class="st1" d="M250.1,399.2c-0.6-0.4-1.4-0.3-2.2,0.1l-10.2,6c-1.5,0.9-2.7,3.1-2.7,5.1v11.1
			c0,1.2,0.4,2.1,1.2,2.5c0.3,0.2,0.6,0.3,0.9,0.3c0.4,0,0.8-0.1,1.3-0.4l10.2-6h0c1.5-0.9,2.7-3.1,2.7-5.2v-11.1
			C251.3,400.5,250.8,399.6,250.1,399.2z"/>
	</g>
	<g id="XMLID_16_">
		<g id="XMLID_1912_">
			<path id="XMLID_218_" class="st0" d="M222.4,545.9H156c-13.5,0-24.4-11.1-24.4-24.7c0-13.6,11-24.7,24.4-24.7h66.5
				c13.5,0,24.4,11.1,24.4,24.7C246.8,534.8,235.9,545.9,222.4,545.9z M156,499.2c-12,0-21.7,9.9-21.7,22c0,12.1,9.7,22,21.7,22
				h66.5c12,0,21.7-9.9,21.7-22c0-12.1-9.7-22-21.7-22H156z"/>
		</g>
	</g>
	<g id="XMLID_13_">
		<path id="XMLID_227_" class="st1" d="M80.5,436.8c14.8-25.2,14.8-47,14.8-65.8c0-18.8-13.5-28.6-18.5-33.5
			c-4.9-5-14.1-4.9-20.9,18.5c-8,27.5-40.6,51.2-41.9,72c-1.2,20.8,12.3,113.8,13.5,147.4c0.1,3,0.2,6,0.2,8.9
			c12.3-11.1,32.9-33.9,45.4-70.7c7.7-22.6,4-51.1,7.7-65.7C79.5,443.6,80.5,436.8,80.5,436.8z"/>
		<path id="XMLID_216_" class="st0" d="M82.8,437c0-0.2,0-0.4-0.1-0.7c14.3-24.7,14.3-45.4,14.3-63.6l0-1.8
			c0-17-10.9-27.1-16.7-32.5c-0.8-0.8-1.6-1.5-2.2-2.1c-2.6-2.6-5.7-3.6-8.8-2.8c-2.6,0.7-5,2.6-7.3,5.6l-0.1,0l-0.6,0.9
			c-0.3,0.5-0.6,1-0.9,1.5c-2.1,3.5-4,8.2-5.7,14.1c-1,3.6-2.5,7.1-4.3,10.6c-2.8,5.3-6,10.1-8.6,13.7l-1.2,1.6l0.1,0
			c-2.8,3.8-5.7,7.5-8.5,11.2c-9.7,12.4-18.8,24.1-19.4,35.2c-0.7,11.4,2.9,43.1,6.7,76.7c3.1,27.3,6.3,55.5,6.8,70.8
			c0.1,2.7,0.2,5.5,0.2,8.9l0,3.3l2.4-2.2l0.5-4.4c0-2-0.1-3.9-0.1-5.7c-0.6-15.4-3.8-43.7-6.8-71c-3.6-32-7.4-65.1-6.7-76.2
			c0.6-10.2,9.4-21.5,18.8-33.6c3.1-4,6.2-8,9.2-12.1c2,0.6,4.3,1.1,6.5,1.1c2,0,4-0.4,5.7-1.5c6.9-4.3,13.4-21.1,15.5-28.6
			c2.3-8.3,2.5-10,2.5-10.4v-1.2l-8.8-2c1.9-2.3,3.6-3.1,4.8-3.5c0.5-0.1,0.9-0.2,1.4-0.2c2.1,0,3.8,1.3,4.7,2.2
			c0.6,0.6,1.4,1.4,2.3,2.2c5.9,5.5,15.8,14.6,15.8,30.3l0,1.8c0,18,0,38.3-14.1,62.4v0c-0.4,0.7-0.3,1.3-0.2,1.6c0,0.1,0,0.2,0,0.3
			c0,2.2,0,3.7,0.1,4.9c0,1.9,0.1,3.1,0,5.6l0,0l0,0c0.7,3.1,2.3,2.7,2.9,0.6l0-0.3c0.1-2.7,0.1-4.1,0.1-5.9
			C82.9,440.6,82.8,439.2,82.8,437z M68.7,352.6c-2.6,9.1-9,23.6-14.3,26.9c-2.4,1.5-5.9,1.1-8.9,0.3c3.1-4.4,5.9-8.9,8.1-13.5
			c1.7-3.3,3.2-6.9,4.2-10.5c0.8-2.6,1.6-5,2.4-7.2l8.9,2.4C69.1,351.5,68.9,352,68.7,352.6z M69.7,348.2l-8.2-2.2
			c0.2-0.5,0.5-1,0.7-1.5c0.3-0.6,0.7-1.1,1.1-1.7c0-0.1,0.1-0.1,0.1-0.2l7.3,1.7C70.5,345,70.2,346.2,69.7,348.2z"/>
	</g>
	<g id="XMLID_10_">
		<path id="XMLID_232_" class="st1" d="M370.9,589.2c8.9-13.9,16-28,19.7-43.7c2.4-10.4-12.7-29.4-15-32.2c-0.2,0-0.3,0-0.3,0
			s-10.1-11.9-20.7-16.1c-10.5-4.2-10.5-4.2-10.5-4.2s-3.1-3.1-16.8-1.9c-13.8,1.2-54.6,7.5-54.6,7.5s-6.2,12.5-1,21.2
			c5.1,8.7,16.4,17,26.1,16.6c9.6-0.4,30.2-2.3,32,2.9c1.8,5.2-3.3,5.4-9.9,17.4c-6.6,12-6.4,19.5-6.4,19.5s-2.7,18.3,12.9,32.6
			c15.6,14.3,19.8,15.1,19.8,15.1c0,0,0,0,0,0L370.9,589.2z"/>
		<path id="XMLID_231_" class="st0" d="M376.7,512.2l-0.5-0.6l-0.3,0c-2.2-2.5-11.2-12.2-20.7-16l-10.3-4.1c-1.1-0.8-5.4-3.1-17.7-2
			c-13.6,1.2-54.3,7.4-54.7,7.5l-0.7,0.1l-0.3,0.7c-0.3,0.5-6.5,13.3-1,22.6c5.2,8.9,16.9,17.8,27.4,17.3c1.2-0.1,2.6-0.1,4.1-0.2
			c7.6-0.4,25.3-1.4,26.5,2.1c0.7,2,0.2,2.8-2.2,5.5c-1.9,2.2-4.6,5.3-7.5,10.7c-6.3,11.5-6.5,19-6.5,20.1c-0.1,1-1.6,14.5,6.9,25
			l0,0c-5.2-17-4-24.7-4-24.7l0-0.1l0-0.1c0-0.1-0.1-7.3,6.2-18.8c2.8-5.1,5.3-8,7.2-10.2c2.5-2.9,4.1-4.7,2.8-8.5
			c-1.3-3.6-7.6-4.5-16.4-4.5c-3.9,0-8.4,0.2-13,0.5c-1.5,0.1-2.9,0.2-4.1,0.2c-9.3,0.4-20.1-7.9-24.8-15.9
			c-4-6.8-0.4-16.5,0.8-19.1c0.4-0.1,0.9-0.1,1.6-0.2c0.6,2.7,2.6,9.5,7.6,13.5c1.9,1.5,4.8,2.1,8.1,2.1c8,0,18.3-3.6,21.9-5.8
			c5.9-3.5,6-9.1,6-9.4v-0.3l-0.1-0.3c-0.1-0.1-1.3-2.9-3.3-5.6c4.8-0.6,9.1-1.1,12.1-1.4c12.5-1.1,15.7,1.4,15.7,1.4l0.2,0.2
			l10.8,4.3c10.1,4,18.2,13.7,18.3,13.8l2.5,2.5l0,0c3.1,3.9,16.4,21.2,14.3,30.4c-3.2,13.7-9.4,27.4-19.5,43.2l-24,33.8l-1.4,2.6
			c0.9,0.5,1.4,0.6,1.7,0.7l0.9,0.2l25.2-35.5l0-0.1c10.3-16.1,16.6-30.1,19.9-44.2C394.6,534.8,379.8,515.9,376.7,512.2z
			 M284.6,510.5c-3.8-3-5.5-8.3-6.2-10.8l4.1-0.6c1.2,4.2,2.5,8.6,3.5,12.2C285.5,511.1,285,510.8,284.6,510.5z M315.9,500.3
			c-0.1,1-0.7,4.3-4.5,6.5c-4.2,2.5-15.3,5.9-22.2,5.3c-1.1-3.8-2.6-9-4-13.8c8.1-1.2,18.2-2.7,27-3.8
			C314,496.7,315.4,499.4,315.9,500.3z"/>
	</g>
</g>
<g id="_x38__1_">
	<polygon id="XMLID_12379_" class="st1" points="1091.9,410.6 1125,429.9 1125,391.3 1091.9,371.9 1091.9,371.9 	"/>
	<path id="XMLID_12374_" class="st0" d="M1158.8,371.6l-33.8-19.7l-33.7,19.7l-0.1,0.1v0l0,0.8l0,0v38.7l33.1,19.3l0,0l0.7,0.4
		l0.7-0.4l0,0l32.8-19.1l0.3-0.2v-38.7l0,0L1158.8,371.6z M1125,353.4l15.6,9.1l-31.8,18.6l-15.6-9.1L1125,353.4z M1124.3,428.9
		l-31.8-18.6v-37.1l31.8,18.6V428.9z M1138.5,382.7l-13.5,7.9l-15.6-9.1l31.8-18.6l15.6,9.1L1138.5,382.7z"/>
	<path id="XMLID_12371_" class="st0" d="M1111.9,391.4l-6.1-3.6c-0.7-0.4-1.4-0.4-1.9-0.1c-0.6,0.4-1,1.2-1,2.2c0,1.7,1,3.6,2.3,4.3
		l6.1,3.6c0.4,0.2,0.7,0.3,1.1,0.3c0.3,0,0.6-0.1,0.8-0.2c0.6-0.4,1-1.2,1-2.2C1114.1,394,1113.1,392.1,1111.9,391.4z M1112.5,396.7
		c-0.2,0.1-0.5,0-0.6-0.1l-6.1-3.6c-0.9-0.5-1.6-2-1.6-3.2c0-0.6,0.2-0.9,0.3-1c0.2-0.1,0.5,0,0.6,0.1l0.4,0.2c0.2,1.5,1,3,2.1,3.6
		l5.2,3.1C1112.8,396.4,1112.6,396.7,1112.5,396.7z"/>
	<path id="XMLID_12370_" class="st1" d="M1153.3,399.4c-0.3-0.2-0.7-0.2-1.1,0.1l-4.9,2.9c-0.7,0.4-1.3,1.5-1.3,2.5v5.3
		c0,0.6,0.2,1,0.6,1.2c0.1,0.1,0.3,0.1,0.5,0.1c0.2,0,0.4-0.1,0.6-0.2l4.9-2.9h0c0.7-0.4,1.3-1.5,1.3-2.5v-5.3
		C1153.9,400,1153.7,399.6,1153.3,399.4z"/>
</g>
<g id="_x37_">
	<polygon id="XMLID_12401_" class="st1" points="352.4,317.1 385.5,336.4 385.5,297.8 352.4,278.4 352.4,278.4 	"/>
	<path id="XMLID_12396_" class="st0" d="M419.2,278.1l-33.8-19.7l-33.7,19.7l-0.1,0.1v0l0,0.8l0,0v38.7l33.1,19.3l0,0l0.7,0.4
		l0.7-0.4l0,0l32.8-19.1l0.3-0.2v-38.7l0,0L419.2,278.1z M385.5,259.9L401,269l-31.8,18.6l-15.6-9.1L385.5,259.9z M384.8,335.4
		L353,316.8v-37.1l31.8,18.6V335.4z M398.9,289.2l-13.5,7.9l-15.6-9.1l31.8-18.6l15.6,9.1L398.9,289.2z"/>
	<path id="XMLID_12393_" class="st0" d="M372.3,297.9l-6.1-3.6c-0.7-0.4-1.4-0.4-1.9-0.1c-0.6,0.4-1,1.2-1,2.2c0,1.7,1,3.6,2.3,4.3
		l6.1,3.6c0.4,0.2,0.7,0.3,1.1,0.3c0.3,0,0.6-0.1,0.8-0.2c0.6-0.4,1-1.2,1-2.2C374.6,300.5,373.6,298.6,372.3,297.9z M372.9,303.2
		c-0.2,0.1-0.5,0-0.6-0.1l-6.1-3.6c-0.9-0.5-1.6-2-1.6-3.2c0-0.6,0.2-0.9,0.3-1c0.2-0.1,0.5,0,0.6,0.1l0.4,0.2c0.2,1.5,1,3,2.1,3.6
		l5.2,3.1C373.2,302.9,373.1,303.2,372.9,303.2z"/>
	<path id="XMLID_12392_" class="st1" d="M413.8,305.9c-0.3-0.2-0.7-0.2-1.1,0.1l-4.9,2.9c-0.7,0.4-1.3,1.5-1.3,2.5v5.3
		c0,0.6,0.2,1,0.6,1.2c0.1,0.1,0.3,0.1,0.5,0.1c0.2,0,0.4-0.1,0.6-0.2l4.9-2.9h0c0.7-0.4,1.3-1.5,1.3-2.5v-5.3
		C414.3,306.5,414.1,306.1,413.8,305.9z"/>
</g>
<g id="_x34__1_">
	<g id="XMLID_563_">
		<g id="XMLID_627_">
			<path id="XMLID_3866_" class="st1" d="M587.4,216c0,0-2.3-0.2-2.7-2.1c-0.4-1.9-0.2-3.1-0.2-3.1s1.3-1.4,2.5-0.6
				c1.6,1,2.7,1.6,2.7,1.6L587.4,216z"/>
			<path id="XMLID_3867_" class="st0" d="M587.7,216.5l-0.3,0c-0.1,0-2.7-0.3-3.1-2.5c-0.4-1.9-0.2-3.2-0.2-3.3l0-0.2l0.1-0.1
				c0.1-0.1,1.6-1.6,3.1-0.7c1.6,1,2.7,1.5,2.7,1.5l0.5,0.2L587.7,216.5z M585.1,211.1c0,0.4-0.1,1.4,0.2,2.7
				c0.2,1.1,1.4,1.5,1.9,1.6l1.9-3.4c-0.5-0.3-1.3-0.7-2.3-1.3C586.1,210.2,585.4,210.8,585.1,211.1z"/>
		</g>
		<g id="XMLID_626_">
			<path id="XMLID_3863_" class="st0" d="M653.3,268.9l-0.3-0.2l-41.1-26.6l0.7-0.4l100.2-57.7l42,26.7l-0.2,0.1L653.3,268.9z
				 M613.9,242.2l39.4,25.5l100.1-57.3l-40.5-25.2L613.9,242.2z"/>
		</g>
		<polygon id="XMLID_3858_" class="st1" points="637.9,153.1 637.9,229.1 678.7,253.6 678.7,177.6 		"/>
		<g id="XMLID_624_">
			<path id="XMLID_3855_" class="st0" d="M679.2,239.7l-41.9-25.2l0-39.4l41.9,23.9L679.2,239.7z M638.3,214l39.9,24l0-38.3
				l-39.9-22.7L638.3,214z"/>
		</g>
		<g id="XMLID_623_">
			<path id="XMLID_3850_" class="st0" d="M741.4,225.6L718.5,212l13.2-11.7l9.1,1.7c0,0,6.4,6.5,6.8,7.3
				C748,210,741.4,225.6,741.4,225.6z"/>
			<path id="XMLID_3851_" class="st0" d="M741.7,226l-0.4,0.2l-23.7-14.1l13.9-12.3l9.5,1.7l0.1,0.1c1.1,1.1,6.5,6.6,6.9,7.4
				c0.1,0.2,0.5,1-6.2,16.8L741.7,226z M719.4,211.9l21.7,12.9c2.9-6.8,5.9-14.3,6-15.4c-0.5-0.7-3.6-4-6.6-6.9l-8.7-1.6
				L719.4,211.9z"/>
		</g>
		<g id="XMLID_622_">
			<path id="XMLID_3827_" class="st0" d="M755.2,133.4L713.3,109l-75,43.6l-0.2,0.1l0,0l-0.8,0.5v0.6l0,0v75.6l41.9,25.2v-76.3
				l75.7-44.1L755.2,133.4z M638.4,228.8v-74.4l39.9,23.8v74.5L638.4,228.8z M679,177.2l-39.9-23.9l74.2-43.1l40.3,23.5L679,177.2z"
				/>
		</g>
		<g id="XMLID_621_">
			<polygon id="XMLID_3842_" class="st0" points="653,276.2 633.3,262.3 647.1,251.5 659.8,254.1 			"/>
			<path id="XMLID_3843_" class="st0" d="M653.5,276.5l-0.5,0.3l-20.6-14.4L647,251l13.5,2.7L653.5,276.5z M634.1,262.3l18.6,13
				l6.4-20.9l-11.9-2.4L634.1,262.3z"/>
		</g>
		<g id="XMLID_615_">
			<g id="XMLID_619_">
				<path id="XMLID_3838_" class="st1" d="M640.9,257.7l-0.7-0.4c-0.2-0.1-0.5-0.2-0.7-0.3c-3.6-0.9-8.3,4-9.9,11
					c-1.5,6.4-0.1,12.3,2.4,13.8v0l8.7,5.1l7.1-24.4L640.9,257.7z"/>
				<path id="XMLID_3839_" class="st0" d="M641.4,286.3c-0.2,0.7-1,1-1.6,0.7l-8.3-4.8c-2.7-2-3.8-8.3-2.4-14.2
					c1.7-7.1,6.5-12.3,10.5-11.4c0.3,0.1,0.5,0.2,0.8,0.3l0.7,0.4l7.3,5L641.4,286.3z M632.4,281.4l8.1,4.7l6.9-23.5l-7.3-5
					c-0.2-0.1-0.4-0.2-0.6-0.2c-3.4-0.8-7.8,4.1-9.3,10.6C628.6,274.4,630,280,632.4,281.4L632.4,281.4z"/>
			</g>
			<g id="XMLID_618_">
				<path id="XMLID_3834_" class="st1" d="M650.2,275.9c-1.6,6.9-5.9,11.9-9.5,11c-3.6-0.9-5.2-7.2-3.6-14.1
					c1.6-6.9,5.9-11.9,9.5-11C650.3,262.6,651.9,269,650.2,275.9z"/>
				<path id="XMLID_3835_" class="st0" d="M641.6,287.5c-0.3,0-0.7,0-1-0.1c-3.9-1-5.7-7.4-4-14.8c1.7-7.3,6.2-12.3,10.1-11.4
					c3.9,1,5.7,7.4,4,14.8C649.1,282.7,645.3,287.5,641.6,287.5z M645.8,262.2c-3.1,0-6.7,4.6-8.2,10.7c-1.5,6.5-0.1,12.7,3.2,13.5
					c3.3,0.8,7.4-4.1,8.9-10.6l0,0c1.5-6.5,0.1-12.7-3.2-13.5C646.3,262.2,646,262.2,645.8,262.2z"/>
			</g>
			<g id="XMLID_617_">
				<path id="XMLID_3830_" class="st0" d="M647.2,275.2c-0.9,3.7-3.2,6.4-5.1,5.9c-1.9-0.5-2.8-3.9-1.9-7.6c0.9-3.7,3.2-6.4,5.1-5.9
					C647.2,268.1,648.1,271.4,647.2,275.2z"/>
				<path id="XMLID_3831_" class="st0" d="M642.6,281.6c-0.2,0-0.4,0-0.6-0.1c-1.1-0.3-2-1.3-2.4-2.9c-0.4-1.5-0.4-3.4,0.1-5.3
					c1-4.1,3.5-6.8,5.7-6.3c1.1,0.3,2,1.3,2.4,2.9c0.4,1.5,0.4,3.4-0.1,5.3l0,0C646.8,279,644.6,281.6,642.6,281.6z M644.8,268
					c-1.6,0-3.4,2.4-4.1,5.6c-0.4,1.7-0.4,3.4-0.1,4.8c0.3,1.2,0.9,2,1.6,2.2c1.6,0.4,3.7-2.1,4.5-5.5c0.4-1.7,0.4-3.4,0.1-4.8
					c-0.3-1.2-0.9-2-1.6-2.2C645,268.1,644.9,268,644.8,268z"/>
			</g>
			<g id="XMLID_616_">
				<path id="XMLID_3826_" class="st1" d="M645.3,267.6c-0.4-0.1-0.8,0-1.2,0.1c1.6,0.8,2.3,4,1.5,7.4c-0.7,3-2.3,5.2-3.9,5.8
					c0.1,0.1,0.3,0.1,0.4,0.2c1.9,0.5,4.2-2.2,5.1-5.9C648.1,271.4,647.2,268.1,645.3,267.6z"/>
			</g>
		</g>
		<g id="XMLID_611_">
			<polygon id="XMLID_599_" class="st1" points="653.7,244.3 632.6,231.4 624.9,235.6 642.8,246.6 651.1,254.5 653.7,259 			"/>
			<path id="XMLID_600_" class="st0" d="M654.2,260.9l-3.5-6.1l-8.3-7.8l-18.5-11.4l8.6-4.8l21.7,13.2V260.9z M626,235.7l17.1,10.5
				l8.5,8l1.6,2.9v-12.5L632.5,232L626,235.7z"/>
		</g>
		<g id="XMLID_598_">
			<path id="XMLID_3818_" class="st0" d="M624.6,285.4c-2.1,0-3.6-0.5-3.7-0.6c-0.4-0.2-32.2-18.6-37.7-21.9
				c-5.8-3.6-3.2-10.3-3.2-10.4l5-32.4c0.1-0.3,6.3-25.4,7.1-28.5c0.9-3.4,4.3-5.2,4.4-5.3l22.6-13.1c0.2-0.1,4.4-2.7,8.9-3.1
				c0,0,0.1,0,0.1,0c5.3,0,35.6,20.1,39.7,23c5.5,3.8,4.7,8.2,4.6,8.3l0,23.5l-1.1,33.1l-18.7,11.2l0.1-1c0-0.1,0.6-8.2-2.8-10.7
				c-1.3-0.9-3.1-0.9-5.3,0.1c-9.6,4.2-10.1,23.1-10.1,23.3c0,0.3,0,0.3-4.5,3C628.2,285.1,626.3,285.4,624.6,285.4z M621.4,283.9
				c0,0,4.3,1.5,8.2-0.8c2.6-1.6,3.6-2.2,4-2.4c0.1-2.6,1.1-19.7,10.7-24c2.5-1.1,4.6-1.1,6.3,0c3.1,2.3,3.3,8.3,3.3,10.6l16.6-9.9
				l1.1-32.6v-23.6c0-0.3,0.7-4-4.2-7.4c-8-5.6-34.8-22.8-39.1-22.8c0,0-0.1,0-0.1,0c-4.3,0.4-8.4,3-8.5,3l-22.6,13.1
				c0,0-3.1,1.8-3.9,4.7c-0.8,3.1-7,28.2-7.1,28.5l-5,32.5c-0.1,0.4-2.3,6.2,2.8,9.3C589.3,265.3,621.1,283.7,621.4,283.9
				C621.4,283.9,621.4,283.9,621.4,283.9z M629.6,245.8l5.5-32.2l21.5-12V231L629.6,245.8z M636.1,214.3l-5.1,29.6l24.7-13.5v-27.1
				L636.1,214.3z M627.6,245.7l-40.4-24.3l7-28.8l38.6,22.4l-0.1,0.4L627.6,245.7z M588.4,220.9l38.4,23.1l4.9-28.5l-36.8-21.4
				L588.4,220.9z"/>
		</g>
		<g id="XMLID_597_">
			<polygon id="XMLID_3810_" class="st1" points="587.9,221.3 594.6,193.6 632.4,215.4 627.3,245 			"/>
			<path id="XMLID_3811_" class="st0" d="M627.6,245.8l-40.4-24.3l7-28.8l38.6,22.4l-0.1,0.4L627.6,245.8z M588.4,221.1l38.4,23.1
				l4.9-28.5L595,194.3L588.4,221.1z"/>
		</g>
		<g id="XMLID_596_">
			<polygon id="XMLID_594_" class="st1" points="656.3,202.2 656.3,230.9 630.4,245 635.7,214.1 			"/>
			<path id="XMLID_595_" class="st0" d="M629.7,245.9l5.5-32.2l0.2-0.1l21.3-12.3v29.9L629.7,245.9z M636.2,214.4l-5.1,29.7
				l24.7-13.4v-27.5L636.2,214.4z"/>
		</g>
		<g id="XMLID_593_">
			<path id="XMLID_3800_" class="st0" d="M632.3,215.3l-5.1,29.6c0,0-4.8,25.6-5.8,31.1c-0.6,3,1.6,7.2,3.4,8.9
				c1.6,0.1,3.7-0.2,5.7-1.4c4.2-2.5,4.2-2.5,4.2-2.5s0.5-18.6,9-23.3c9.6-5.3,9.6,10.7,9.6,10.7l17.7-10.6l1.1-32.9v-23.6
				c0,0,0.7-4.8-5.3-8.3c0,0-20.2,12.2-26.5,15.1C631.3,212.1,632.3,215.3,632.3,215.3z M656.2,230.6l-25.6,14.1l5.2-30.9l20.4-11.5
				V230.6z"/>
			<path id="XMLID_3803_" class="st0" d="M625.2,285.3c-0.2,0-0.4,0-0.5,0l-0.2,0l-0.1-0.1c-1.8-1.7-4.2-6-3.5-9.3
				c1-5.5,5.8-31.1,5.8-31.1l5.1-29.4c-0.1-0.8-0.1-3.9,8.3-7.8c6.2-2.9,26.3-15,26.5-15.1l0.3-0.2l0.3,0.2c6.2,3.7,5.6,8.6,5.5,8.8
				l0,23.6l-1.1,33.2l-18.7,11.2l0-0.9c0-0.1-0.1-8.6-3.7-10.8c-1.3-0.8-3.1-0.6-5.1,0.5c-8.2,4.5-8.7,22.7-8.7,22.8
				c0,0.3,0,0.3-4.5,3C629.1,284.8,627.2,285.3,625.2,285.3z M624.9,284.3c1.9,0.1,3.7-0.4,5.3-1.3c2.6-1.6,3.6-2.2,4-2.4
				c0.1-2.5,1.1-18.9,9.2-23.4c2.4-1.3,4.5-1.5,6.1-0.5c3.4,2.1,4.1,8.4,4.2,10.7l16.7-10l1.1-32.7v-23.6c0-0.3,0.5-4.4-4.8-7.7
				c-2.4,1.4-20.4,12.2-26.3,15c-8.3,3.9-7.7,6.7-7.7,6.8l0,0.1l0,0.1l-5.1,29.6c0,0-4.8,25.6-5.8,31.1
				C621.3,278.8,623.3,282.7,624.9,284.3z M629.9,245.7l5.4-32.2l21.4-12v29.5L629.9,245.7z M636.2,214.2l-5,29.6l24.4-13.5v-27.1
				L636.2,214.2z"/>
		</g>
		<g id="XMLID_592_">
			<polygon id="XMLID_3796_" class="st0" points="648.7,247.7 648.7,242.6 654.5,239 654.5,245.2 648.7,248.6 			"/>
			<path id="XMLID_3797_" class="st1" d="M648.2,249.5v-7.2l5.3-3.3c0.7-0.4,1.6,0.1,1.6,0.9v4.5c0,0.7-0.3,1.3-0.9,1.6L648.2,249.5
				z M649.2,242.9v4.8l4.8-2.9v-5L649.2,242.9z"/>
		</g>
		<g id="XMLID_591_">
			<path id="XMLID_3792_" class="st0" d="M654.9,239c0,0-1.2,0.4-1.2,1.9c0,1.5,0,3.5,0,3.5s0.2,1.2,1.2,0.6
				c0.9-0.6,0.7-1.5,0.7-1.5l0-3.7C655.6,239.6,655.2,238.8,654.9,239z"/>
			<path id="XMLID_3793_" class="st1" d="M654.4,245.6c-0.2,0-0.3,0-0.4-0.1c-0.6-0.2-0.8-1-0.8-1.1l0-3.6c0-1.7,1.2-2.3,1.5-2.4
				c0.2-0.1,0.4-0.1,0.5,0c0.4,0.1,0.8,0.7,0.9,0.9l0.1,0.2l0,3.7c0,0,0,0,0,0c0,0,0.2,1.2-0.9,2
				C654.9,245.5,654.6,245.6,654.4,245.6z M655,239.5c-0.2,0.1-0.7,0.5-0.7,1.4v3.5c0,0,0.1,0.2,0.2,0.2c0,0,0.1,0,0.2-0.1
				c0.6-0.4,0.5-1,0.5-1l0-3.7C655.1,239.6,655,239.5,655,239.5z"/>
		</g>
		<g id="XMLID_589_">
			<polygon id="XMLID_3788_" class="st1" points="582.7,239.1 623.8,263.2 626,251 584.7,226.1 			"/>
			<path id="XMLID_3789_" class="st0" d="M624.1,264l-42-24.7l2.2-14l42.3,25.4L624.1,264z M583.2,238.8l40.2,23.6l2.1-11.1L585,227
				L583.2,238.8z"/>
		</g>
		<g id="XMLID_588_">
			<polygon id="XMLID_3784_" class="st0" points="587.1,237.5 611.7,252.6 624.6,250.2 589.5,229.1 			"/>
			<path id="XMLID_3785_" class="st0" d="M611.6,253.2l-0.2-0.1l-24.9-15.3l2.7-9.5l36.8,22.1L611.6,253.2z M587.7,237.3l24.1,14.8
				l11.4-2.2l-33.4-20.1L587.7,237.3z"/>
		</g>
		<g id="XMLID_587_">
			<path id="XMLID_3781_" class="st0" d="M594.7,242.8l-12-7.4l1.6-10.1l4,2.4c4.7,2.8,6.2,13.6,6.3,14L594.7,242.8z M583.8,234.9
				l9.6,5.9c-0.5-2.8-2.1-10.1-5.6-12.2L585,227L583.8,234.9z"/>
		</g>
		<g id="XMLID_586_">
			<path id="XMLID_3777_" class="st0" d="M624.7,260.7l-15.1-8.8l0.6-0.5c0.1-0.1,3.6-2.7,5.7-3.1c4.3-0.9,5.7-0.5,5.9-0.4l4.8,2.9
				L624.7,260.7z M611.5,251.9l12.6,7.3l1.5-7.8l-4-2.4c0,0-0.3,0-0.9,0c-0.8,0-2.2,0.1-4.4,0.6
				C614.8,249.6,612.5,251.1,611.5,251.9z"/>
		</g>
		<g id="XMLID_585_">
			<path id="XMLID_3772_" class="st1" d="M615.6,280.9c-4-2.3-1.8-9.1-1.8-9.1l0.9-2.7l-27.8-16.7l-0.6,3.6c0,0-2.5,6.4,3,9.8
				c3.6,2.2,18.8,11,28.8,16.8L615.6,280.9z"/>
			<path id="XMLID_3773_" class="st0" d="M617.9,283.1c-9.1-5.3-25-14.5-28.8-16.8c-5.8-3.6-3.2-10.3-3.2-10.4l0.6-4.2l28.8,17.3
				l-1.1,3.1c0,0.1-2,6.4,1.6,8.4l0,0l2.5,1.7L617.9,283.1z M587.3,253.3l-0.4,2.8c-0.1,0.4-2.3,6.2,2.8,9.3
				c3.1,1.9,14.7,8.7,23.8,13.9c-1.5-3-0.2-7.4-0.1-7.6l0.8-2.3L587.3,253.3z"/>
		</g>
		<g id="XMLID_584_">
			<path id="XMLID_3768_" class="st0" d="M592.3,266.6c-4-2.3-1.8-9.1-1.8-9.1l0.8-2.4l-4.4-2.6l-0.6,3.6c0,0-2.5,6.4,3,9.8
				c1,0.6,2.9,1.7,5.3,3.1C594.2,268.5,592.3,266.6,592.3,266.6z"/>
			<path id="XMLID_3769_" class="st0" d="M597.9,271.5l-3.5-2c-2.4-1.4-4.3-2.5-5.3-3.2c-5.8-3.6-3.2-10.3-3.2-10.4l0.6-4.2l5.4,3.2
				l-1,2.8c0,0-2,6.4,1.6,8.4l1,1.6L597.9,271.5z M587.3,253.3l-0.4,2.8c-0.1,0.4-2.3,6.2,2.8,9.3c0.3,0.2,0.8,0.5,1.3,0.8
				c-2.8-2.9-1-8.5-0.9-8.8l0.7-2L587.3,253.3z"/>
		</g>
		<g id="XMLID_579_">
			<g id="XMLID_583_">
				<path id="XMLID_3764_" class="st1" d="M729.8,209.5l-0.7-0.4c-0.2-0.1-0.5-0.2-0.7-0.3c-3.6-0.8-8.3,4.3-9.7,11.2
					c-1.3,6.5,0.2,12.3,2.7,13.8v0l9.1,4.8l6.4-24.6L729.8,209.5z"/>
				<path id="XMLID_3765_" class="st0" d="M731.2,237.6c-0.2,0.9-1.3,1.4-2.2,1l-8.3-4.4c-2.8-1.9-3.9-8-2.6-14.2
					c0.7-3.4,2.2-6.5,4.2-8.8c2-2.2,4.2-3.3,6.2-2.9c0.3,0.1,0.5,0.2,0.8,0.3l0.7,0.4l7.4,4.8L731.2,237.6z M721.6,233.5l8.5,4.5
					l6.2-23.6l-7.4-4.8c-0.2-0.1-0.4-0.2-0.6-0.2c-1.6-0.3-3.5,0.6-5.2,2.6c-1.9,2.1-3.3,5-3.9,8.3
					C717.8,226.5,719.3,232.2,721.6,233.5L721.6,233.5z"/>
			</g>
			<g id="XMLID_582_">
				<path id="XMLID_3758_" class="st1" d="M739.6,227.5c-1.4,7-5.6,12-9.2,11.2c-3.6-0.8-5.4-7.1-4-14c1.4-7,5.6-12,9.2-11.2
					C739.3,214.2,741,220.5,739.6,227.5z"/>
				<path id="XMLID_3759_" class="st0" d="M731.1,239.3c-0.3,0-0.6,0-0.9-0.1c-4-0.8-5.9-7.3-4.4-14.6c1.5-7.4,5.8-12.5,9.8-11.6
					c2,0.4,3.5,2.2,4.3,5.1c0.8,2.7,0.8,6.1,0.1,9.6c-0.7,3.5-2.1,6.6-3.9,8.8C734.6,238.3,732.8,239.3,731.1,239.3z M734.9,213.9
					c-3.2,0-6.6,4.7-7.9,10.9c-1.4,6.6,0.3,12.7,3.6,13.4c1.6,0.3,3.3-0.6,4.9-2.5c1.7-2.1,3-5,3.7-8.3c0.7-3.3,0.7-6.5-0.1-9.1
					c-0.7-2.5-1.9-4-3.5-4.3C735.3,213.9,735.1,213.9,734.9,213.9z"/>
			</g>
			<g id="XMLID_581_">
				<path id="XMLID_3752_" class="st0" d="M736.5,226.8c-0.8,3.7-3,6.4-4.9,6c-2-0.4-2.9-3.8-2.1-7.5c0.8-3.7,3-6.4,4.9-6
					C736.4,219.7,737.3,223.1,736.5,226.8z"/>
				<path id="XMLID_3755_" class="st0" d="M732,233.4c-0.2,0-0.3,0-0.5-0.1c-2.3-0.5-3.4-4.1-2.5-8.1c0.8-4.1,3.3-6.9,5.5-6.4
					c2.3,0.5,3.4,4.1,2.5,8.1l0,0C736.3,230.7,734.1,233.4,732,233.4z M734,219.8c-1.6,0-3.4,2.5-4,5.7c-0.7,3.4,0.1,6.6,1.7,6.9
					c1.6,0.3,3.6-2.2,4.3-5.6l0,0c0.7-3.4-0.1-6.6-1.7-6.9C734.2,219.8,734.1,219.8,734,219.8z"/>
			</g>
			<g id="XMLID_580_">
				<path id="XMLID_3682_" class="st1" d="M734.4,219.3c-0.4-0.1-0.8,0-1.2,0.1c1.7,0.8,2.4,3.9,1.7,7.4c-0.6,3-2.1,5.3-3.7,5.9
					c0.1,0.1,0.3,0.1,0.4,0.2c1.9,0.4,4.2-2.3,4.9-6C737.3,223.1,736.4,219.7,734.4,219.3z"/>
			</g>
		</g>
		<path id="XMLID_3749_" class="st0" d="M678.5,177.5l-0.3,0.1v76.9l46.5-26.4l0.2-0.1l0-0.3c0.7-6.1,2.7-14.1,7.8-16.8
			c1.5-0.8,2.8-0.9,3.8-0.4c1.7,0.9,3,3.6,3.7,8l0.1,0.7l14.5-8.4l0.3-77.3l0,0l-0.5-0.3L678.5,177.5z"/>
		<g id="XMLID_574_">
			<g id="XMLID_577_">
				<path id="XMLID_1177_" class="st0" d="M653,276.8l-0.5-0.3l0.3-8.4l0.2-0.1l72-41.2l-0.1,1c-0.5,4.3-0.4,7.8-0.4,7.8l0,0.3
					l-0.3,0.2L653,276.8z M653.8,268.6l-0.2,6.7l70-40.1c0-0.9,0-3.5,0.3-6.7L653.8,268.6z"/>
			</g>
			<g id="XMLID_575_">
				<path id="XMLID_780_" class="st0" d="M741.3,226.2l-0.5-0.3l0-0.3c0,0,0.1-3.6-0.5-7.3l-0.1-0.4l14.7-8.4l-0.3,9L741.3,226.2z
					 M741.4,218.5c0.4,2.6,0.5,5,0.5,6.2l11.8-6.7l0.2-6.6L741.4,218.5z"/>
			</g>
		</g>
		<g id="XMLID_573_">
			<polygon id="XMLID_610_" class="st1" points="614.1,184.1 638.7,199.3 653.2,190.7 627.9,176 			"/>
			<path id="XMLID_612_" class="st0" d="M638.7,199.9l-25.6-15.8l14.8-8.7l26.3,15.3L638.7,199.9z M615.1,184.1l23.6,14.6l13.4-8
				l-24.3-14.1L615.1,184.1z"/>
		</g>
		<g id="XMLID_572_">
			<polygon id="XMLID_606_" class="st0" points="627.9,179.4 650.3,192.5 653.2,190.7 627.9,176 614.1,184.1 616.9,185.9 			"/>
			<path id="XMLID_607_" class="st0" d="M650.3,193l-22.4-13l-11,6.4l-3.8-2.3l14.8-8.7l26.3,15.3L650.3,193z M627.9,178.8l22.4,13
				l1.9-1.1l-24.3-14.1l-12.8,7.5l1.8,1.1L627.9,178.8z"/>
		</g>
		<g id="XMLID_571_">
			<polygon id="XMLID_602_" class="st1" points="678.7,199.4 754.7,156.6 754.7,197 678.7,238.8 			"/>
			<path id="XMLID_603_" class="st0" d="M678.2,239.7v-40.5l0.3-0.1l76.7-43.3v41.6l-0.3,0.1L678.2,239.7z M679.2,199.7V238
				l74.9-41.2v-39.2L679.2,199.7z"/>
		</g>
		<g id="XMLID_569_">
			<path id="XMLID_566_" class="st1" d="M636,241.8c0,0,0.9,3,4.5,2.7c3.6-0.3,3.9-1.4,3.9-1.4s-0.1-2.8-2.6-4c-2.5-1.2-5.8-2-5.8-2
				l-0.7,1.2l1.7,0.8L636,241.8z"/>
			<path id="XMLID_567_" class="st0" d="M640.1,245c-3.5,0-4.5-3.1-4.5-3.1l-0.1-0.2l0.9-2.4l-1.8-0.8l1.2-2l0.4,0.1
				c0.1,0,3.4,0.9,5.9,2.1c2.8,1.3,2.9,4.3,2.9,4.4l0,0.1l0,0.1c-0.1,0.3-0.7,1.4-4.3,1.7C640.4,245,640.2,245,640.1,245z
				 M636.6,241.8c0.2,0.6,1.2,2.4,3.9,2.2c2.5-0.2,3.2-0.8,3.4-1c-0.1-0.5-0.4-2.5-2.3-3.4c-2-0.9-4.4-1.7-5.4-1.9l-0.2,0.4l1.6,0.8
				L636.6,241.8z"/>
		</g>
		<g id="XMLID_562_">
			<path id="XMLID_561_" class="st0" d="M681.6,249.8v-0.9c0-4.7,2.5-9.3,6.1-11.2l11.2-6.2l0,8L681.6,249.8z M697.9,233.3l-9.7,5.3
				c-3.3,1.7-5.2,5.8-5.5,9.4l15.2-9L697.9,233.3z"/>
		</g>
	</g>
</g>
<g>
	<path class="st0" d="M170.2,520.5h-5.7v5.4h6.4v1.6h-8.3v-14.9h7.9v1.6h-6v4.7h5.7V520.5z"/>
	<path class="st0" d="M173.3,519.7c0-1.1,0-2-0.1-2.9h1.7l0.1,1.8h0c0.5-1,1.7-2,3.5-2c1.5,0,3.7,0.9,3.7,4.6v6.4h-1.9v-6.2
		c0-1.7-0.6-3.2-2.4-3.2c-1.3,0-2.2,0.9-2.6,2c-0.1,0.2-0.1,0.6-0.1,0.9v6.4h-1.9V519.7z"/>
	<path class="st0" d="M185.8,516.8l2.1,6c0.3,1,0.6,1.9,0.9,2.7h0.1c0.2-0.9,0.5-1.8,0.9-2.7l2.1-6h2l-4.1,10.7h-1.8l-4-10.7H185.8z
		"/>
	<path class="st0" d="M197.7,513.8c0,0.7-0.5,1.2-1.2,1.2c-0.7,0-1.2-0.5-1.2-1.2c0-0.7,0.5-1.2,1.2-1.2
		C197.3,512.5,197.7,513.1,197.7,513.8z M195.6,527.5v-10.7h1.9v10.7H195.6z"/>
	<path class="st0" d="M206.6,527.5l-0.2-1.3h-0.1c-0.6,0.8-1.7,1.6-3.2,1.6c-2.1,0-3.2-1.5-3.2-3.1c0-2.6,2.3-4,6.4-4v-0.2
		c0-0.9-0.2-2.5-2.4-2.5c-1,0-2,0.3-2.8,0.8l-0.4-1.3c0.9-0.6,2.1-1,3.5-1c3.2,0,4,2.2,4,4.4v4c0,0.9,0,1.8,0.2,2.6H206.6z
		 M206.3,522c-2.1,0-4.5,0.3-4.5,2.4c0,1.3,0.8,1.9,1.8,1.9c1.4,0,2.2-0.9,2.6-1.8c0.1-0.2,0.1-0.4,0.1-0.6V522z"/>
	<path class="st0" d="M211.2,520.1c0-1.3,0-2.3-0.1-3.3h1.7l0.1,2.1h0.1c0.5-1.4,1.6-2.3,2.9-2.3c0.2,0,0.4,0,0.5,0.1v1.8
		c-0.2,0-0.4-0.1-0.7-0.1c-1.4,0-2.3,1-2.6,2.5c0,0.3-0.1,0.6-0.1,0.9v5.7h-1.9V520.1z"/>
</g>
<g>
	<path class="st2" d="M194.9,653.3l-2.1,2c-1.4-1.5-3-2.3-4.8-2.3c-1.5,0-2.8,0.5-3.8,1.6c-1,1-1.5,2.3-1.5,3.8c0,1.1,0.2,2,0.7,2.8
		c0.5,0.8,1.1,1.5,1.9,1.9c0.8,0.5,1.8,0.7,2.8,0.7c0.9,0,1.7-0.2,2.4-0.5c0.7-0.3,1.5-0.9,2.4-1.8l2,2.1c-1.2,1.1-2.3,1.9-3.3,2.4
		c-1,0.4-2.2,0.7-3.5,0.7c-2.4,0-4.4-0.8-6-2.3c-1.6-1.6-2.3-3.6-2.3-6c0-1.6,0.4-3,1.1-4.2c0.7-1.2,1.7-2.2,3-3
		c1.3-0.7,2.7-1.1,4.3-1.1c1.3,0,2.5,0.3,3.7,0.8C193,651.5,194,652.3,194.9,653.3z"/>
	<path class="st2" d="M202.6,654.4c1.1,0,2.1,0.3,3.1,0.8c1,0.6,1.7,1.3,2.3,2.3c0.5,1,0.8,2,0.8,3.1c0,1.1-0.3,2.1-0.8,3.1
		c-0.5,1-1.3,1.7-2.2,2.3c-0.9,0.5-2,0.8-3.1,0.8c-1.7,0-3.1-0.6-4.3-1.8s-1.8-2.7-1.8-4.4c0-1.8,0.7-3.4,2-4.6
		C199.8,654.9,201.1,654.4,202.6,654.4z M202.7,657.1c-0.9,0-1.7,0.3-2.3,1c-0.6,0.6-0.9,1.5-0.9,2.4c0,1,0.3,1.8,0.9,2.5
		c0.6,0.6,1.3,0.9,2.3,0.9s1.7-0.3,2.3-1c0.6-0.6,0.9-1.5,0.9-2.5s-0.3-1.8-0.9-2.5C204.4,657.4,203.6,657.1,202.7,657.1z"/>
	<path class="st2" d="M211.1,654.7h2.9v1.3c0.5-0.6,1.1-1,1.7-1.2c0.6-0.3,1.3-0.4,2-0.4c0.7,0,1.4,0.2,2,0.5
		c0.6,0.4,1.1,0.9,1.4,1.6c0.5-0.7,1-1.2,1.7-1.6c0.7-0.4,1.4-0.5,2.2-0.5c0.8,0,1.6,0.2,2.2,0.6c0.6,0.4,1.1,0.9,1.4,1.5
		c0.3,0.6,0.4,1.6,0.4,3.1v6.9H226v-6c0-1.3-0.2-2.2-0.5-2.7c-0.3-0.5-0.8-0.7-1.5-0.7c-0.5,0-0.9,0.1-1.3,0.4s-0.7,0.7-0.9,1.2
		s-0.3,1.3-0.3,2.4v5.3h-2.9v-5.7c0-1.1-0.1-1.8-0.2-2.3c-0.2-0.5-0.4-0.8-0.7-1.1c-0.3-0.2-0.7-0.3-1.1-0.3c-0.5,0-0.9,0.1-1.3,0.4
		c-0.4,0.3-0.7,0.7-0.9,1.2c-0.2,0.5-0.3,1.4-0.3,2.5v5.2h-2.9V654.7z"/>
	<path class="st2" d="M234.6,654.7v1.3c0.5-0.5,1.1-0.9,1.7-1.2s1.3-0.4,2-0.4c1.5,0,2.8,0.6,3.9,1.7c1.1,1.2,1.6,2.6,1.6,4.5
		c0,1.7-0.5,3.2-1.6,4.4c-1.1,1.2-2.4,1.8-3.9,1.8c-0.7,0-1.3-0.1-1.9-0.4c-0.6-0.2-1.1-0.6-1.7-1.2v5.5h-2.9v-16H234.6z
		 M237.6,657.1c-0.9,0-1.7,0.3-2.3,0.9c-0.6,0.6-0.9,1.5-0.9,2.5c0,1,0.3,1.9,0.9,2.5c0.6,0.6,1.4,1,2.3,1c0.9,0,1.6-0.3,2.2-1
		c0.6-0.7,0.9-1.5,0.9-2.5c0-1-0.3-1.8-0.9-2.5C239.3,657.4,238.6,657.1,237.6,657.1z"/>
	<path class="st2" d="M245.4,654.7h2.5v1.5c0.3-0.6,0.6-1,1.1-1.3c0.4-0.3,0.9-0.5,1.5-0.5c0.4,0,0.8,0.1,1.2,0.3l-0.9,2.5
		c-0.3-0.2-0.6-0.3-0.8-0.3c-0.4,0-0.8,0.3-1.1,0.8c-0.3,0.6-0.5,1.7-0.5,3.3l0,0.6v4.8h-2.9V654.7z"/>
	<path class="st2" d="M261.7,654.7h2.9v11.7h-2.9v-1.2c-0.6,0.5-1.1,0.9-1.7,1.2s-1.2,0.4-1.9,0.4c-1.5,0-2.8-0.6-3.9-1.8
		s-1.6-2.6-1.6-4.4c0-1.8,0.5-3.3,1.6-4.5c1.1-1.2,2.3-1.7,3.9-1.7c0.7,0,1.3,0.1,2,0.4c0.6,0.3,1.2,0.7,1.7,1.2V654.7z
		 M258.6,657.1c-0.9,0-1.6,0.3-2.2,1c-0.6,0.6-0.9,1.5-0.9,2.5c0,1,0.3,1.8,0.9,2.5c0.6,0.7,1.4,1,2.2,1c0.9,0,1.7-0.3,2.3-1
		c0.6-0.6,0.9-1.5,0.9-2.5c0-1-0.3-1.8-0.9-2.5C260.3,657.4,259.5,657.1,258.6,657.1z"/>
</g>
<ellipse class="st2" cx="138.2" cy="657.4" rx="34.6" ry="35"/>
<g>
	<path class="st1" d="M144.8,634.9c0.3,0,0.4,0.3,0.4,0.6v31h6.6c0.2,0,0.4,0.3,0.4,0.6v8.7c0,0.4-0.1,0.6-0.4,0.6h-28.6
		c-0.2,0-0.3-0.5-0.3-0.8V667c0-0.3,0.2-0.6,0.4-0.6h6.8v-17.2h-6.6c-0.3,0-0.6-0.2-0.6-0.6v-7.9c0-0.3,0.1-1,0.3-1h10
		c1.5,0,2.3-2.7,3-4.4c0.1-0.2,0.3-0.5,0.4-0.5H144.8z"/>
</g>
<g>
	<path class="st2" d="M195.3,148.7h8.6v3h-5.6v2.9h5.6v2.9h-5.6v4.2h5.6v3h-8.6V148.7z"/>
	<path class="st2" d="M206.3,152.8h2.9v1.2c0.7-0.6,1.3-1,1.8-1.2c0.5-0.2,1.1-0.3,1.6-0.3c1.2,0,2.1,0.4,2.9,1.2
		c0.7,0.7,1,1.7,1,3.1v7.8h-2.9v-5.1c0-1.4-0.1-2.3-0.2-2.8c-0.1-0.5-0.3-0.8-0.6-1.1c-0.3-0.2-0.7-0.4-1.1-0.4
		c-0.6,0-1.1,0.2-1.5,0.6c-0.4,0.4-0.7,0.9-0.9,1.7c-0.1,0.4-0.1,1.2-0.1,2.4v4.7h-2.9V152.8z"/>
	<path class="st2" d="M218.2,152.8h3l2.9,6.9l2.9-6.9h3l-4.9,11.7h-1.9L218.2,152.8z"/>
	<path class="st2" d="M233.3,146.5h3.4l-3.9,4.2h-2.1L233.3,146.5z M231.3,152.8h2.9v11.7h-2.9V152.8z"/>
	<path class="st2" d="M245.5,152.8h2.9v11.7h-2.9v-1.2c-0.6,0.5-1.1,0.9-1.7,1.2c-0.6,0.2-1.2,0.4-1.9,0.4c-1.5,0-2.8-0.6-3.9-1.8
		c-1.1-1.2-1.6-2.6-1.6-4.4c0-1.8,0.5-3.3,1.6-4.5s2.3-1.7,3.9-1.7c0.7,0,1.3,0.1,2,0.4s1.2,0.7,1.7,1.2V152.8z M242.4,155.3
		c-0.9,0-1.6,0.3-2.2,1c-0.6,0.6-0.9,1.5-0.9,2.5c0,1,0.3,1.8,0.9,2.5c0.6,0.7,1.4,1,2.2,1c0.9,0,1.7-0.3,2.3-1
		c0.6-0.6,0.9-1.5,0.9-2.5c0-1-0.3-1.8-0.9-2.5C244.1,155.6,243.3,155.3,242.4,155.3z"/>
</g>
<ellipse class="st2" cx="153" cy="155.5" rx="34.6" ry="35"/>
<g>
	<path class="st1" d="M151.1,143.3c-1.6,0-3.3,1-4.5,3.8c-1.2,2.8-4,7.4-6.7,7.4c-2.7,0-4.5-1.5-4.5-5.5c0-14.1,10.4-15.9,17.5-15.9
		h6.1c7,0,15.3,2.8,15.3,11.9c0,10.8-14,15.1-16.6,15.7c-6.3,1.3-8.8,2.3-10.2,5.2h14.9v-3c0-0.3,0.1-0.7,0.3-0.7h10.8
		c0.2,0,0.4,0.2,0.4,0.6v11c0,0.3-0.2,0.8-0.4,0.8h-37.7c-0.3,0-0.4-0.4-0.4-0.9v-6.4c0-0.2,0.2-0.6,0.3-0.9c2-3.4,4.8-6.2,7.6-8.9
		c4.9-4.8,14.3-6,14.3-10.7c0-2.8-2.2-3.4-3.7-3.4H151.1z"/>
</g>
<g>
	<path class="st2" d="M585.1,30.8h3.2c1.7,0,3,0.2,3.7,0.5c0.7,0.3,1.3,0.8,1.8,1.6c0.4,0.7,0.7,1.6,0.7,2.6c0,1-0.2,1.9-0.7,2.6
		c-0.5,0.7-1.2,1.2-2.2,1.6l3.7,7.1h-3.3l-3.5-6.7H588v6.7h-3V30.8z M588,37h0.9c0.9,0,1.6-0.1,2-0.4c0.4-0.3,0.5-0.7,0.5-1.3
		c0-0.3-0.1-0.6-0.3-0.9c-0.2-0.3-0.4-0.4-0.7-0.6c-0.3-0.1-0.8-0.2-1.6-0.2H588V37z"/>
	<path class="st2" d="M605.8,34.9h2.9v11.7h-2.9v-1.2c-0.6,0.5-1.1,0.9-1.7,1.2c-0.6,0.2-1.2,0.4-1.9,0.4c-1.5,0-2.8-0.6-3.9-1.8
		s-1.6-2.6-1.6-4.4c0-1.8,0.5-3.3,1.6-4.5c1.1-1.2,2.3-1.7,3.9-1.7c0.7,0,1.3,0.1,2,0.4c0.6,0.3,1.2,0.7,1.7,1.2V34.9z M602.7,37.3
		c-0.9,0-1.6,0.3-2.2,1c-0.6,0.6-0.9,1.5-0.9,2.5c0,1,0.3,1.8,0.9,2.5c0.6,0.7,1.4,1,2.2,1c0.9,0,1.7-0.3,2.3-1
		c0.6-0.6,0.9-1.5,0.9-2.5c0-1-0.3-1.8-0.9-2.5C604.4,37.7,603.6,37.3,602.7,37.3z"/>
	<path class="st2" d="M618.7,36.6l-1.8,1.8c-0.7-0.7-1.4-1.1-2-1.1c-0.3,0-0.6,0.1-0.8,0.2c-0.2,0.1-0.3,0.3-0.3,0.5
		c0,0.2,0.1,0.3,0.2,0.4c0.1,0.1,0.4,0.3,0.9,0.5l1.1,0.5c1.1,0.6,1.9,1.1,2.3,1.7s0.6,1.3,0.6,2.1c0,1-0.4,1.9-1.1,2.6
		c-0.8,0.7-1.8,1-3,1c-1.7,0-3-0.7-4.1-2l1.8-2c0.3,0.4,0.7,0.7,1.2,1c0.5,0.2,0.9,0.4,1.2,0.4c0.4,0,0.7-0.1,0.9-0.3
		s0.4-0.4,0.4-0.6c0-0.5-0.4-0.9-1.3-1.3l-1-0.5c-1.9-1-2.8-2.2-2.8-3.6c0-0.9,0.4-1.7,1.1-2.4c0.7-0.7,1.6-1,2.7-1
		c0.8,0,1.5,0.2,2.1,0.5C617.7,35.5,618.3,35.9,618.7,36.6z"/>
	<path class="st2" d="M621.6,30.6h2.9v4.3h1.7v2.5h-1.7v9.2h-2.9v-9.2h-1.5v-2.5h1.5V30.6z"/>
	<path class="st2" d="M627.1,34.9h2.5v1.5c0.3-0.6,0.6-1,1.1-1.3s0.9-0.5,1.5-0.5c0.4,0,0.8,0.1,1.2,0.3l-0.9,2.5
		c-0.3-0.2-0.6-0.3-0.8-0.3c-0.4,0-0.8,0.3-1.1,0.8s-0.5,1.7-0.5,3.3l0,0.6v4.7h-2.9V34.9z"/>
	<path class="st2" d="M646.4,41.6H637c0.1,0.8,0.5,1.5,1.1,2s1.3,0.7,2.2,0.7c1.1,0,2-0.4,2.8-1.2l2.5,1.2c-0.6,0.9-1.3,1.5-2.2,1.9
		c-0.9,0.4-1.9,0.6-3,0.6c-1.8,0-3.3-0.6-4.4-1.7s-1.7-2.6-1.7-4.4c0-1.8,0.6-3.3,1.7-4.5c1.1-1.2,2.6-1.8,4.3-1.8
		c1.8,0,3.3,0.6,4.5,1.8c1.1,1.2,1.7,2.7,1.7,4.7L646.4,41.6z M643.5,39.3c-0.2-0.7-0.6-1.2-1.1-1.6c-0.6-0.4-1.2-0.6-2-0.6
		c-0.8,0-1.5,0.2-2.1,0.7c-0.4,0.3-0.7,0.8-1.1,1.5H643.5z"/>
	<path class="st2" d="M657.3,34.9h2.9v11.7h-2.9v-1.2c-0.6,0.5-1.1,0.9-1.7,1.2c-0.6,0.2-1.2,0.4-1.9,0.4c-1.5,0-2.8-0.6-3.9-1.8
		s-1.6-2.6-1.6-4.4c0-1.8,0.5-3.3,1.6-4.5c1.1-1.2,2.3-1.7,3.9-1.7c0.7,0,1.3,0.1,2,0.4c0.6,0.3,1.2,0.7,1.7,1.2V34.9z M654.3,37.3
		c-0.9,0-1.6,0.3-2.2,1c-0.6,0.6-0.9,1.5-0.9,2.5c0,1,0.3,1.8,0.9,2.5c0.6,0.7,1.4,1,2.2,1c0.9,0,1.7-0.3,2.3-1
		c0.6-0.6,0.9-1.5,0.9-2.5c0-1-0.3-1.8-0.9-2.5C655.9,37.7,655.2,37.3,654.3,37.3z"/>
</g>
<ellipse class="st2" cx="542.6" cy="37.6" rx="34.6" ry="35"/>
<g>
	<path class="st1" d="M550.5,15.2c6.4,0,14.3,3.4,14.3,10.4c0,5.9-3.8,8.7-5.9,10.1v0.2c1.6,0.8,5.9,2.6,5.9,9.1
		c0,9.1-8.2,11.7-10.7,11.7h-13.5c-10.9,0-14.9-6.2-14.9-11.9c0-5.4,3.2-6.4,4.9-6.4c2.6,0,4.7,1.3,6.1,3.4c2.7,3.9,3.5,4.5,6.2,4.5
		h2.2c1.7,0,3.3-1,3.3-3c0-2.4-2.1-2.8-3.5-2.8h-3.4c-0.1,0-0.4,0-0.4-0.3v-8.8c0-0.3,0.1-0.3,0.4-0.3h3.3c1.8,0,3.8-0.5,3.8-2.7
		c0-2.3-3.1-2.9-4.4-2.9h-2.9c-0.7,0-2,0.5-2.9,1.8c-1.4,2-3.8,6.3-7.5,6.3s-4.9-3.3-4.9-7.7c0-9.8,11.2-10.7,16.5-10.7H550.5z"/>
</g>
<g>
	<path class="st2" d="M1085.5,486.8h3.5c2.3,0,4,0.3,5.1,0.9c1.1,0.6,2,1.5,2.7,2.8c0.7,1.3,1.1,2.8,1.1,4.5c0,1.2-0.2,2.3-0.6,3.4
		c-0.4,1-1,1.9-1.7,2.6c-0.7,0.7-1.5,1.1-2.3,1.4c-0.8,0.3-2.3,0.4-4.3,0.4h-3.6V486.8z M1088.5,489.7v10h1.4c1.4,0,2.4-0.2,3-0.5
		c0.6-0.3,1.1-0.9,1.5-1.6c0.4-0.8,0.6-1.7,0.6-2.8c0-1.7-0.5-3-1.4-3.9c-0.8-0.8-2.2-1.3-4-1.3H1088.5z"/>
	<path class="st2" d="M1112.1,497.6h-9.4c0.1,0.8,0.5,1.5,1.1,2s1.3,0.7,2.2,0.7c1.1,0,2-0.4,2.8-1.2l2.5,1.2
		c-0.6,0.9-1.3,1.5-2.2,1.9c-0.9,0.4-1.9,0.6-3,0.6c-1.8,0-3.3-0.6-4.4-1.7c-1.1-1.2-1.7-2.6-1.7-4.4c0-1.8,0.6-3.3,1.7-4.5
		c1.1-1.2,2.6-1.8,4.3-1.8c1.8,0,3.3,0.6,4.5,1.8s1.7,2.7,1.7,4.7L1112.1,497.6z M1109.2,495.3c-0.2-0.7-0.6-1.2-1.1-1.6
		c-0.6-0.4-1.2-0.6-2-0.6c-0.8,0-1.5,0.2-2.1,0.7c-0.4,0.3-0.7,0.8-1.1,1.5H1109.2z"/>
	<path class="st2" d="M1121.5,492.6l-1.8,1.8c-0.7-0.7-1.4-1.1-2-1.1c-0.3,0-0.6,0.1-0.8,0.2c-0.2,0.1-0.3,0.3-0.3,0.5
		c0,0.2,0.1,0.3,0.2,0.4c0.1,0.1,0.4,0.3,0.9,0.5l1.1,0.5c1.1,0.6,1.9,1.1,2.3,1.7c0.4,0.6,0.6,1.3,0.6,2.1c0,1-0.4,1.9-1.1,2.6
		c-0.8,0.7-1.8,1-3,1c-1.7,0-3-0.7-4.1-2l1.8-2c0.3,0.4,0.7,0.7,1.2,1c0.5,0.2,0.9,0.4,1.2,0.4c0.4,0,0.7-0.1,0.9-0.3
		c0.2-0.2,0.4-0.4,0.4-0.6c0-0.5-0.4-0.9-1.3-1.3l-1-0.5c-1.9-1-2.8-2.2-2.8-3.6c0-0.9,0.4-1.7,1.1-2.4c0.7-0.7,1.6-1,2.7-1
		c0.8,0,1.5,0.2,2.1,0.5S1121.1,491.9,1121.5,492.6z"/>
	<path class="st2" d="M1124.4,486.6h2.9v4.3h1.7v2.5h-1.7v9.2h-2.9v-9.2h-1.5v-2.5h1.5V486.6z"/>
	<path class="st2" d="M1131.7,486.1c0.5,0,0.9,0.2,1.3,0.6c0.4,0.4,0.5,0.8,0.5,1.4c0,0.5-0.2,1-0.5,1.3c-0.4,0.4-0.8,0.6-1.3,0.6
		c-0.5,0-1-0.2-1.3-0.6c-0.4-0.4-0.5-0.8-0.5-1.4c0-0.5,0.2-1,0.5-1.3C1130.8,486.3,1131.2,486.1,1131.7,486.1z M1130.3,490.9h2.9
		v11.7h-2.9V490.9z"/>
	<path class="st2" d="M1135.8,490.9h2.9v1.2c0.7-0.6,1.3-1,1.8-1.2c0.5-0.2,1.1-0.3,1.6-0.3c1.2,0,2.1,0.4,2.9,1.2
		c0.7,0.7,1,1.7,1,3.1v7.8h-2.9v-5.1c0-1.4-0.1-2.3-0.2-2.8c-0.1-0.5-0.3-0.8-0.6-1.1c-0.3-0.2-0.7-0.4-1.1-0.4
		c-0.6,0-1.1,0.2-1.5,0.6c-0.4,0.4-0.7,1-0.9,1.7c-0.1,0.4-0.1,1.2-0.1,2.4v4.7h-2.9V490.9z"/>
	<path class="st2" d="M1154.4,490.6c1.1,0,2.1,0.3,3.1,0.8c1,0.6,1.7,1.3,2.3,2.3c0.5,1,0.8,2,0.8,3.1c0,1.1-0.3,2.1-0.8,3.1
		c-0.5,1-1.3,1.7-2.2,2.3c-0.9,0.5-2,0.8-3.1,0.8c-1.7,0-3.1-0.6-4.3-1.8s-1.8-2.7-1.8-4.4c0-1.8,0.7-3.4,2-4.6
		C1151.5,491.1,1152.9,490.6,1154.4,490.6z M1154.4,493.4c-0.9,0-1.7,0.3-2.3,1s-0.9,1.5-0.9,2.4c0,1,0.3,1.8,0.9,2.5
		s1.3,0.9,2.3,0.9s1.7-0.3,2.3-1c0.6-0.6,0.9-1.5,0.9-2.5s-0.3-1.8-0.9-2.5C1156.1,493.7,1155.4,493.4,1154.4,493.4z"/>
</g>
<ellipse class="st2" cx="1043.2" cy="493.6" rx="34.6" ry="35"/>
<g>
	<path class="st1" d="M1051.1,471.2c6.4,0,14.3,3.4,14.3,10.4c0,5.9-3.8,8.7-5.9,10.1v0.2c1.6,0.8,5.9,2.6,5.9,9.1
		c0,9.1-8.2,11.7-10.7,11.7h-13.5c-10.9,0-14.9-6.2-14.9-11.9c0-5.4,3.2-6.4,4.9-6.4c2.6,0,4.7,1.3,6.1,3.4c2.7,3.9,3.5,4.5,6.2,4.5
		h2.2c1.7,0,3.3-1,3.3-3c0-2.4-2.1-2.8-3.5-2.8h-3.4c-0.1,0-0.4,0-0.4-0.3v-8.8c0-0.3,0.1-0.3,0.4-0.3h3.3c1.8,0,3.8-0.5,3.8-2.7
		c0-2.3-3.1-2.9-4.4-2.9h-2.9c-0.7,0-2,0.5-2.9,1.8c-1.4,2-3.8,6.3-7.5,6.3c-3.7,0-4.9-3.3-4.9-7.7c0-9.8,11.2-10.7,16.5-10.7
		H1051.1z"/>
</g>
<g>
	<g>
		<path class="st2" d="M1069.3,378.2L1069.3,378.2c1.4-3.4,2.2-7.1,2.2-11c0-15.7-12.6-28.4-28.1-28.4c-15.5,0-28.1,12.7-28.1,28.4
			c0,5.8,1.7,11.2,4.7,15.7c4.1,8,17.5,28.7,23.4,28.7c6.8,0,20.2-21.9,24.5-30.7C1068.5,380.1,1068.9,379.2,1069.3,378.2
			C1069.3,378.2,1069.3,378.2,1069.3,378.2z"/>
		<path class="st3" d="M1066.7,367.2c0,13-10.4,23.5-23.2,23.5c-12.8,0-23.2-10.5-23.2-23.5c0-13,10.4-23.5,23.2-23.5
			C1056.3,343.7,1066.7,354.2,1066.7,367.2z"/>
		<path class="st2" d="M1060.2,367.2c0,9.4-7.5,17-16.8,17c-9.3,0-16.8-7.6-16.8-17c0-9.4,7.5-17,16.8-17
			C1052.7,350.2,1060.2,357.8,1060.2,367.2z"/>
		<path class="st3" d="M1054.9,367.2c0,6.4-5.2,11.6-11.5,11.6c-6.4,0-11.5-5.2-11.5-11.6c0-6.4,5.2-11.6,11.5-11.6
			C1049.8,355.6,1054.9,360.8,1054.9,367.2z"/>
		<linearGradient id="SVGID_1_" gradientUnits="userSpaceOnUse" x1="1016.3593" y1="365.7096" x2="1020.2935" y2="365.7096">
			<stop  offset="0" style="stop-color:#C9CACC"/>
			<stop  offset="0.6774" style="stop-color:#FFFFFF"/>
		</linearGradient>
		<path class="st4" d="M1020.3,353.2c0,0-7.8,12.2-1.4,25C1018.9,378.2,1014.3,366.6,1020.3,353.2z"/>
		<linearGradient id="SVGID_2_" gradientUnits="userSpaceOnUse" x1="1027.9932" y1="366.4825" x2="1032.3005" y2="366.4825">
			<stop  offset="0" style="stop-color:#C9CACC"/>
			<stop  offset="0.6774" style="stop-color:#FFFFFF"/>
		</linearGradient>
		<path class="st5" d="M1032.3,357.2c0,0-8.6,9-1.5,18.6C1030.8,375.8,1025.8,367.1,1032.3,357.2z"/>
	</g>
</g>
</svg>
